<svg version="1.1" id="Layer_1" xmlns="http://www.w3.org/2000/svg" xmlns:xlink="http://www.w3.org/1999/xlink" x="0px" y="0px"
	 width="100%" viewBox="0 0 734 852" enable-background="new 0 0 734 852" xml:space="preserve">
<path fill="#FEFFFF" opacity="1.000000" stroke="none" 
	d="
M735.000000,416.000000 
	C735.000000,562.000000 735.000000,707.500000 735.000000,853.000000 
	C490.333344,853.000000 245.666672,853.000000 1.000000,853.000000 
	C1.000000,569.000000 1.000000,285.000000 1.000000,1.000000 
	C245.666672,1.000000 490.333344,1.000000 735.000000,1.000000 
	C735.000000,139.166672 735.000000,277.333344 735.000000,416.000000 
M325.542145,418.593292 
	C339.183044,402.903717 352.834717,387.223541 366.457336,371.518127 
	C369.909271,367.538452 370.049683,364.021210 367.013092,361.095428 
	C364.306122,358.487183 359.139923,358.524902 356.091736,361.649719 
	C351.628174,366.225433 347.362823,371.009521 343.225555,375.885132 
	C336.066589,384.321686 329.157623,392.971893 321.913971,401.333374 
	C320.809296,402.608582 318.495697,403.342163 316.700806,403.422394 
	C310.383423,403.704865 303.980377,403.050568 297.745270,403.832153 
	C293.917816,404.311920 289.559265,405.929230 286.809753,408.501007 
	C281.301025,413.653595 276.696808,419.781097 271.784058,425.561218 
	C261.712006,437.411774 251.716278,449.327301 241.625244,461.161591 
	C233.191391,471.052429 224.559601,480.776794 216.251907,490.771393 
	C213.971481,493.514862 212.699402,497.620819 215.571335,500.260529 
	C217.423691,501.963165 221.190796,502.052155 224.072830,501.965668 
	C225.499359,501.922852 227.069977,500.024292 228.225281,498.667236 
	C236.455811,488.999176 244.528397,479.196381 252.780746,469.547211 
	C264.930298,455.341156 277.352814,441.364685 289.305054,426.996002 
	C293.251343,422.251892 297.342590,419.600922 303.686462,420.337463 
	C307.959320,420.833557 312.341064,420.544434 316.664520,420.369812 
	C318.177521,420.308685 319.661957,419.540253 321.913971,419.152191 
	C322.910706,419.035339 323.907440,418.918488 325.542145,418.593292 
M182.992828,489.501953 
	C199.595062,471.729218 216.175842,453.936401 232.804916,436.188812 
	C253.777023,413.806061 274.817596,391.487396 295.770081,369.086304 
	C305.493744,358.690399 314.992828,348.083710 324.760712,337.730103 
	C330.321564,331.835815 335.918304,325.906525 342.068390,320.660675 
	C346.330475,317.025238 353.215149,318.182037 355.860596,322.153320 
	C358.333710,325.865967 360.604584,329.720123 362.833038,333.587708 
	C370.979462,347.726105 379.068756,361.897369 387.183807,376.053864 
	C394.491150,388.801392 401.649536,401.638062 409.184692,414.249573 
	C412.558807,419.896820 411.136200,424.724762 407.951782,429.538483 
	C400.745453,440.431732 393.366119,451.210999 386.202118,462.131714 
	C379.372437,472.542694 372.615845,483.006042 366.087616,493.606750 
	C364.670471,495.907990 362.898315,499.884521 363.880463,501.333923 
	C365.426392,503.615417 369.077850,505.354614 372.001068,505.637543 
	C378.439240,506.260620 385.006226,506.173218 391.464996,505.666626 
	C394.157440,505.455444 397.587189,504.126465 399.164825,502.115662 
	C404.762085,494.981537 409.800385,487.398346 414.873657,479.866211 
	C422.130768,469.091797 428.938507,458.002075 436.501221,447.450562 
	C441.737122,440.145477 443.927856,432.637878 440.586304,424.229980 
	C438.894806,419.973938 436.276001,416.050354 433.810974,412.143951 
	C422.346069,393.975372 410.735046,375.898895 399.286011,357.720367 
	C393.475403,348.494415 387.919128,339.108582 382.199249,329.825012 
	C380.580597,327.197876 380.754883,325.003571 382.909058,322.676819 
	C386.847443,318.422943 390.364807,313.762451 394.460907,309.675568 
	C399.985077,304.163971 402.343475,304.169769 407.661041,309.957062 
	C422.113403,325.686005 436.359558,341.604401 450.691071,357.444427 
	C464.895050,373.143524 479.031860,388.904144 493.326874,404.519928 
	C514.201416,427.323181 535.188599,450.023346 556.132874,472.762695 
	C562.751587,479.948669 569.532959,486.991180 575.971191,494.334930 
	C581.801086,500.984680 588.110596,506.290497 597.697510,504.080841 
	C600.069641,503.534119 603.413269,502.331207 604.092407,500.573181 
	C604.899048,498.485107 604.161621,494.731110 602.630493,492.972778 
	C584.969299,472.690521 567.052673,452.630249 549.157776,432.552094 
	C537.478516,419.447968 525.662720,406.465271 514.018005,393.330780 
	C499.115936,376.522278 484.430054,359.521332 469.453766,342.779755 
	C456.085449,327.835785 442.354279,313.216736 428.956268,298.298889 
	C414.229279,281.901306 399.575439,265.434113 385.141418,248.779099 
	C378.703735,241.350891 371.589508,243.743210 366.166412,250.024399 
	C353.826141,264.317322 341.428101,278.562347 328.894714,292.685852 
	C320.627136,302.002350 311.969513,310.972321 303.686157,320.275177 
	C284.223907,342.132782 264.934448,364.144226 245.466507,385.996704 
	C236.739532,395.792633 227.665939,405.279236 218.905563,415.046021 
	C208.550735,426.590485 198.440948,438.354706 188.085190,449.898285 
	C175.822250,463.567841 163.370453,477.067993 151.117844,490.746674 
	C149.732849,492.292908 148.781509,494.424591 148.196381,496.448792 
	C147.014603,500.536987 148.787094,503.930328 152.815903,504.240295 
	C162.009048,504.947479 171.200363,505.061096 177.279831,496.014526 
	C178.746506,493.832031 180.752884,492.012207 182.992828,489.501953 
M199.756470,624.723877 
	C202.311401,627.499878 204.573547,630.636902 207.473068,632.987915 
	C218.664352,642.062012 229.828171,651.201782 241.460251,659.689270 
	C249.088608,665.255432 257.166748,670.438599 265.646820,674.548218 
	C277.755066,680.416138 290.155334,685.935303 302.914215,690.134888 
	C315.509979,694.280762 328.592072,697.274475 341.677094,699.504333 
	C351.927032,701.251038 362.499542,701.318787 372.943726,701.633179 
	C379.375092,701.826721 385.891632,701.513855 392.270355,700.672974 
	C407.997559,698.599976 423.881805,697.036438 439.309967,693.536194 
	C462.554596,688.262390 483.627380,677.357300 503.711609,664.733154 
	C525.845093,650.821106 545.352844,633.768066 562.980896,613.342773 
	C561.594055,612.075562 560.344238,610.021423 558.671265,609.583191 
	C554.382019,608.459839 549.890015,607.387085 545.505371,607.484009 
	C530.742798,607.810303 515.712219,607.104492 501.308411,609.701294 
	C484.084686,612.806580 467.304260,618.593933 450.509064,623.792114 
	C432.779877,629.279419 415.336914,635.687866 397.628418,641.246216 
	C375.369812,648.232727 352.729797,647.370117 330.282166,642.518372 
	C314.391785,639.083862 299.767578,631.992737 285.790100,623.784607 
	C275.177429,617.552429 265.231903,610.069092 254.268402,604.583740 
	C244.508438,599.700562 233.665985,597.028076 223.467911,592.961975 
	C209.877106,587.543152 196.560654,588.927551 183.330704,593.889648 
	C178.636505,595.650208 177.719025,598.381287 180.803146,602.280945 
	C186.731079,609.776306 193.106491,616.917786 199.756470,624.723877 
M518.501343,520.158875 
	C510.771118,520.794128 502.925751,520.805542 495.336792,522.206238 
	C482.967407,524.489136 470.246155,526.330750 458.617310,530.809448 
	C442.097443,537.171753 427.203186,547.021301 413.345673,558.185547 
	C397.374390,571.052734 380.635986,582.797485 362.516266,592.441956 
	C345.313721,601.598328 327.506470,608.951660 307.584442,609.570679 
	C303.790558,609.688538 300.021545,610.606873 295.511353,611.261841 
	C296.768646,612.995667 297.223114,614.282227 298.105103,614.733765 
	C304.923920,618.224915 311.585632,622.238464 318.764069,624.755188 
	C327.055389,627.662048 335.906525,628.926331 344.367432,631.406006 
	C357.290680,635.193542 370.043518,632.192810 382.674103,630.396362 
	C389.619507,629.408508 396.157928,625.650635 402.918060,623.249207 
	C416.706665,618.351135 430.506409,613.483398 444.329590,608.683960 
	C455.460358,604.819397 466.540833,600.768860 477.817841,597.380737 
	C485.523499,595.065552 493.452362,593.140808 501.419495,592.136536 
	C511.604218,590.852783 521.946716,589.936218 532.186890,590.198975 
	C545.251709,590.534180 558.288452,592.138794 571.324341,593.337219 
	C576.096558,593.775940 578.561768,590.870300 580.840820,587.495605 
	C581.479065,586.550537 581.849426,585.411621 582.546204,584.520935 
	C592.351379,571.986572 599.017029,557.661133 605.590088,543.350952 
	C609.067078,535.781311 606.258972,530.569885 598.099548,527.724609 
	C595.200378,526.713562 592.043152,526.372498 588.974060,525.931763 
	C575.486450,523.994568 562.032349,521.649414 548.478577,520.407532 
	C538.891968,519.529175 529.165100,520.181091 518.501343,520.158875 
M165.857498,526.244995 
	C161.779434,526.885620 157.636215,527.257812 153.638245,528.228333 
	C147.296127,529.767883 141.788116,533.356323 145.092560,541.088989 
	C148.720932,549.579712 152.607361,557.972229 156.725479,566.236023 
	C158.537918,569.873108 160.790115,573.474182 163.562958,576.411621 
	C169.412857,582.608826 176.959015,579.662781 183.853653,579.092651 
	C192.072037,578.413025 200.342636,575.696533 208.396606,576.329834 
	C220.154572,577.254272 231.853500,579.904663 243.370209,582.680054 
	C258.293823,586.276306 272.813873,591.851746 287.872406,594.504761 
	C305.869415,597.675415 323.512604,593.504761 340.111481,586.217224 
	C349.595703,582.053223 358.821472,577.085144 367.582977,571.558594 
	C374.587524,567.140259 380.922180,561.565857 387.156616,556.054810 
	C391.049957,552.613220 389.767578,549.005371 384.758759,547.986633 
	C383.154877,547.660400 381.487488,547.580139 379.844421,547.523071 
	C363.450287,546.954224 347.045380,546.599182 330.667480,545.730957 
	C326.722137,545.521790 322.876251,543.599609 318.965515,542.535461 
	C313.497040,541.047668 308.018219,539.596191 302.529755,538.183838 
	C296.529785,536.639771 290.497894,535.218140 284.508484,533.635254 
	C275.549530,531.267456 266.719727,528.253540 257.641327,526.540588 
	C248.757950,524.864380 239.641937,524.362732 230.609177,523.556946 
	C224.517303,523.013611 218.358856,522.256958 212.289368,522.610840 
	C197.092209,523.496704 181.928711,524.960266 165.857498,526.244995 
M310.492645,147.230270 
	C307.586700,148.147507 304.691589,149.816376 301.773010,149.858536 
	C284.454315,150.108749 267.130219,149.989563 249.807922,149.978317 
	C243.279739,149.974091 239.203888,147.292053 237.376007,141.407013 
	C236.750061,139.391678 237.280106,137.011078 236.623718,135.013687 
	C236.217331,133.777039 234.545914,132.108658 233.488190,132.140854 
	C232.058960,132.184326 229.528931,133.586243 229.453537,134.558960 
	C228.923065,141.402710 226.595886,148.168869 228.843384,155.184677 
	C230.484009,160.306030 233.354218,163.610870 238.801529,164.154861 
	C245.224319,164.796249 251.658707,165.612976 258.099091,165.726425 
	C271.752838,165.966934 285.415405,165.693375 299.070038,165.906631 
	C301.344421,165.942139 304.027222,166.839508 305.777039,168.257217 
	C310.538483,172.115005 315.026123,176.337997 319.399628,180.642502 
	C336.703644,197.673447 353.991974,214.721848 371.109589,231.939255 
	C374.247711,235.095673 376.092743,235.493729 379.474976,232.060532 
	C399.540985,211.692230 419.931946,191.644272 440.037384,171.314316 
	C443.955933,167.351990 448.088135,165.602020 453.696655,165.697861 
	C470.344574,165.982346 487.012787,166.188049 503.648926,165.662094 
	C514.651794,165.314255 519.102722,164.079437 522.265259,154.473373 
	C524.649231,147.232285 522.631165,140.439713 521.373230,133.519180 
	C521.224365,132.700516 519.559509,131.429184 518.890564,131.589691 
	C517.619507,131.894653 516.035461,132.845703 515.530457,133.958954 
	C514.661011,135.875641 514.468689,138.112946 514.080200,140.231827 
	C512.917786,146.570786 508.884583,149.971252 502.355499,149.976852 
	C484.866638,149.991821 467.374146,150.164612 449.892365,149.812622 
	C446.771851,149.749802 443.086090,148.167175 440.714264,146.086212 
	C433.724243,139.953354 427.286133,133.193924 420.589844,126.723320 
	C407.211212,113.795616 393.872589,100.825180 380.375946,88.021545 
	C374.940765,82.865486 374.766693,83.038879 369.349274,88.450386 
	C349.907684,107.870865 330.469696,127.294960 310.492645,147.230270 
M477.546417,445.051147 
	C477.855621,445.632843 478.095795,446.265778 478.484161,446.788727 
	C487.788605,459.319397 497.058563,471.876282 506.449799,484.341766 
	C510.529602,489.757080 514.507996,495.339478 519.288452,500.084259 
	C520.840698,501.624878 525.214355,501.731537 527.549988,500.737610 
	C530.887634,499.317230 530.107666,495.714935 528.707275,492.903656 
	C527.679626,490.840668 526.270203,488.946838 524.884521,487.086578 
	C516.242554,475.484314 507.498444,463.957733 498.904327,452.320282 
	C486.584534,435.637909 474.429382,418.833740 462.081940,402.171967 
	C451.077515,387.322418 439.935547,372.574341 428.797363,357.824493 
	C423.848724,351.271179 419.076233,344.532959 413.538391,338.508759 
	C411.919464,336.747711 407.940796,337.155975 405.043701,336.569946 
	C405.334595,339.353760 404.669342,342.795166 406.062531,344.820831 
	C422.049713,368.065826 438.285889,391.140900 454.595612,414.162170 
	C461.877686,424.440887 469.475037,434.496216 477.546417,445.051147 
M376.705109,401.685120 
	C373.443085,404.363007 369.730011,406.649231 367.002045,409.790863 
	C358.166199,419.966461 349.427551,430.251007 341.172333,440.897461 
	C335.778625,447.853516 329.300079,450.600983 320.752899,449.262878 
	C316.580170,448.609589 313.501068,450.642578 310.930756,453.798584 
	C305.237366,460.789398 299.439087,467.694672 293.711090,474.657410 
	C288.166443,481.397308 282.448975,488.009247 277.198456,494.972260 
	C273.208984,500.262909 275.307770,506.418854 281.264984,506.812469 
	C283.731049,506.975372 287.064972,505.199829 288.808807,503.241425 
	C298.572388,492.276367 308.252075,481.207977 317.341522,469.686646 
	C320.539307,465.633270 323.841919,463.479889 328.616028,464.389435 
	C338.905945,466.349823 344.292725,459.722961 349.839966,453.025116 
	C359.665680,441.161346 369.364868,429.181824 379.536072,417.619324 
	C385.739014,410.567841 385.504578,406.365753 376.705109,401.685120 
M233.500031,104.908325 
	C222.928909,105.629166 212.310989,105.963615 201.806717,107.236244 
	C196.669006,107.858704 191.603836,109.901894 186.788544,111.962692 
	C184.838974,112.797043 182.152740,115.711197 182.451904,117.113594 
	C182.907654,119.249931 185.592224,120.977623 187.489273,122.704147 
	C188.171371,123.324905 189.286972,123.613739 190.249435,123.760010 
	C201.513535,125.471924 212.736526,127.812431 224.068466,128.634064 
	C240.110306,129.797165 256.147797,128.576141 271.824066,124.647583 
	C275.416931,123.747192 278.952057,122.066383 282.097809,120.084488 
	C285.327576,118.049660 284.707458,112.858543 281.231628,111.555054 
	C276.795959,109.891632 272.291077,107.882309 267.665375,107.362343 
	C256.657379,106.124969 245.560791,105.675781 233.500031,104.908325 
M557.385681,124.859962 
	C560.262939,123.721718 563.302979,122.866585 565.957153,121.340363 
	C567.580444,120.406898 569.897766,118.137779 569.629883,117.007507 
	C569.130554,114.901329 567.292542,112.012840 565.450195,111.510796 
	C556.395752,109.043488 547.220032,105.970345 537.968689,105.514648 
	C522.761841,104.765587 507.434174,105.411362 492.217682,106.398087 
	C485.429230,106.838303 478.711639,109.293716 472.126068,111.358261 
	C470.241119,111.949181 467.617096,114.438560 467.692902,115.938087 
	C467.785278,117.765724 470.035461,120.062103 471.930481,121.125656 
	C482.995300,127.335709 495.509155,127.619827 507.629211,128.530807 
	C524.020203,129.762787 540.445740,128.878372 557.385681,124.859962 
M458.568695,460.786469 
	C456.193451,457.119415 452.876587,455.364319 448.957825,457.761383 
	C444.774414,460.320404 446.440674,464.145142 448.281067,467.338135 
	C454.916626,478.850800 461.541748,490.378998 468.607056,501.627350 
	C470.234833,504.218872 472.720062,507.379730 477.222565,505.085449 
	C482.744995,502.271393 483.872986,497.450348 480.048004,491.957275 
	C472.977356,481.803192 466.040710,471.555756 458.568695,460.786469 
M436.649963,501.083099 
	C437.234680,500.135223 438.221191,499.232910 438.334717,498.231598 
	C438.832245,493.842773 436.787720,491.032990 432.565674,489.700714 
	C428.416382,488.391388 425.039307,490.104675 423.232635,493.377441 
	C421.283325,496.908722 422.662292,500.383667 426.115326,502.827087 
	C429.869598,505.483734 433.170837,505.002411 436.649963,501.083099 
z"/>
<path fill="#91A3B1" opacity="1.000000" stroke="none" 
	d="
M182.751953,489.763794 
	C180.752884,492.012207 178.746506,493.832031 177.279831,496.014526 
	C171.200363,505.061096 162.009048,504.947479 152.815903,504.240295 
	C148.787094,503.930328 147.014603,500.536987 148.196381,496.448792 
	C148.781509,494.424591 149.732849,492.292908 151.117844,490.746674 
	C163.370453,477.067993 175.822250,463.567841 188.085190,449.898285 
	C198.440948,438.354706 208.550735,426.590485 218.905563,415.046021 
	C227.665939,405.279236 236.739532,395.792633 245.466507,385.996704 
	C264.934448,364.144226 284.223907,342.132782 303.686157,320.275177 
	C311.969513,310.972321 320.627136,302.002350 328.894714,292.685852 
	C341.428101,278.562347 353.826141,264.317322 366.166412,250.024399 
	C371.589508,243.743210 378.703735,241.350891 385.141418,248.779099 
	C399.575439,265.434113 414.229279,281.901306 428.956268,298.298889 
	C442.354279,313.216736 456.085449,327.835785 469.453766,342.779755 
	C484.430054,359.521332 499.115936,376.522278 514.018005,393.330780 
	C525.662720,406.465271 537.478516,419.447968 549.157776,432.552094 
	C567.052673,452.630249 584.969299,472.690521 602.630493,492.972778 
	C604.161621,494.731110 604.899048,498.485107 604.092407,500.573181 
	C603.413269,502.331207 600.069641,503.534119 597.697510,504.080841 
	C588.110596,506.290497 581.801086,500.984680 575.971191,494.334930 
	C569.532959,486.991180 562.751587,479.948669 556.132874,472.762695 
	C535.188599,450.023346 514.201416,427.323181 493.326874,404.519928 
	C479.031860,388.904144 464.895050,373.143524 450.691071,357.444427 
	C436.359558,341.604401 422.113403,325.686005 407.661041,309.957062 
	C402.343475,304.169769 399.985077,304.163971 394.460907,309.675568 
	C390.364807,313.762451 386.847443,318.422943 382.909058,322.676819 
	C380.754883,325.003571 380.580597,327.197876 382.199249,329.825012 
	C387.919128,339.108582 393.475403,348.494415 399.286011,357.720367 
	C410.735046,375.898895 422.346069,393.975372 433.810974,412.143951 
	C436.276001,416.050354 438.894806,419.973938 440.586304,424.229980 
	C443.927856,432.637878 441.737122,440.145477 436.501221,447.450562 
	C428.938507,458.002075 422.130768,469.091797 414.873657,479.866211 
	C409.800385,487.398346 404.762085,494.981537 399.164825,502.115662 
	C397.587189,504.126465 394.157440,505.455444 391.464996,505.666626 
	C385.006226,506.173218 378.439240,506.260620 372.001068,505.637543 
	C369.077850,505.354614 365.426392,503.615417 363.880463,501.333923 
	C362.898315,499.884521 364.670471,495.907990 366.087616,493.606750 
	C372.615845,483.006042 379.372437,472.542694 386.202118,462.131714 
	C393.366119,451.210999 400.745453,440.431732 407.951782,429.538483 
	C411.136200,424.724762 412.558807,419.896820 409.184692,414.249573 
	C401.649536,401.638062 394.491150,388.801392 387.183807,376.053864 
	C379.068756,361.897369 370.979462,347.726105 362.833038,333.587708 
	C360.604584,329.720123 358.333710,325.865967 355.860596,322.153320 
	C353.215149,318.182037 346.330475,317.025238 342.068390,320.660675 
	C335.918304,325.906525 330.321564,331.835815 324.760712,337.730103 
	C314.992828,348.083710 305.493744,358.690399 295.770081,369.086304 
	C274.817596,391.487396 253.777023,413.806061 232.804916,436.188812 
	C216.175842,453.936401 199.595062,471.729218 182.751953,489.763794 
z"/>
<path fill="#27ABCC" opacity="1.000000" stroke="none" 
	d="
M199.526367,624.464966 
	C193.106491,616.917786 186.731079,609.776306 180.803146,602.280945 
	C177.719025,598.381287 178.636505,595.650208 183.330704,593.889648 
	C196.560654,588.927551 209.877106,587.543152 223.467911,592.961975 
	C233.665985,597.028076 244.508438,599.700562 254.268402,604.583740 
	C265.231903,610.069092 275.177429,617.552429 285.790100,623.784607 
	C299.767578,631.992737 314.391785,639.083862 330.282166,642.518372 
	C352.729797,647.370117 375.369812,648.232727 397.628418,641.246216 
	C415.336914,635.687866 432.779877,629.279419 450.509064,623.792114 
	C467.304260,618.593933 484.084686,612.806580 501.308411,609.701294 
	C515.712219,607.104492 530.742798,607.810303 545.505371,607.484009 
	C549.890015,607.387085 554.382019,608.459839 558.671265,609.583191 
	C560.344238,610.021423 561.594055,612.075562 562.980896,613.342773 
	C545.352844,633.768066 525.845093,650.821106 503.711609,664.733154 
	C483.627380,677.357300 462.554596,688.262390 439.309967,693.536194 
	C423.881805,697.036438 407.997559,698.599976 392.270355,700.672974 
	C385.891632,701.513855 379.375092,701.826721 372.943726,701.633179 
	C362.499542,701.318787 351.927032,701.251038 341.677094,699.504333 
	C328.592072,697.274475 315.509979,694.280762 302.914215,690.134888 
	C290.155334,685.935303 277.755066,680.416138 265.646820,674.548218 
	C257.166748,670.438599 249.088608,665.255432 241.460251,659.689270 
	C229.828171,651.201782 218.664352,642.062012 207.473068,632.987915 
	C204.573547,630.636902 202.311401,627.499878 199.526367,624.464966 
z"/>
<path fill="#26AACC" opacity="1.000000" stroke="none" 
	d="
M519.001099,520.154419 
	C529.165100,520.181091 538.891968,519.529175 548.478577,520.407532 
	C562.032349,521.649414 575.486450,523.994568 588.974060,525.931763 
	C592.043152,526.372498 595.200378,526.713562 598.099548,527.724609 
	C606.258972,530.569885 609.067078,535.781311 605.590088,543.350952 
	C599.017029,557.661133 592.351379,571.986572 582.546204,584.520935 
	C581.849426,585.411621 581.479065,586.550537 580.840820,587.495605 
	C578.561768,590.870300 576.096558,593.775940 571.324341,593.337219 
	C558.288452,592.138794 545.251709,590.534180 532.186890,590.198975 
	C521.946716,589.936218 511.604218,590.852783 501.419495,592.136536 
	C493.452362,593.140808 485.523499,595.065552 477.817841,597.380737 
	C466.540833,600.768860 455.460358,604.819397 444.329590,608.683960 
	C430.506409,613.483398 416.706665,618.351135 402.918060,623.249207 
	C396.157928,625.650635 389.619507,629.408508 382.674103,630.396362 
	C370.043518,632.192810 357.290680,635.193542 344.367432,631.406006 
	C335.906525,628.926331 327.055389,627.662048 318.764069,624.755188 
	C311.585632,622.238464 304.923920,618.224915 298.105103,614.733765 
	C297.223114,614.282227 296.768646,612.995667 295.511353,611.261841 
	C300.021545,610.606873 303.790558,609.688538 307.584442,609.570679 
	C327.506470,608.951660 345.313721,601.598328 362.516266,592.441956 
	C380.635986,582.797485 397.374390,571.052734 413.345673,558.185547 
	C427.203186,547.021301 442.097443,537.171753 458.617310,530.809448 
	C470.246155,526.330750 482.967407,524.489136 495.336792,522.206238 
	C502.925751,520.805542 510.771118,520.794128 519.001099,520.154419 
z"/>
<path fill="#27ABCC" opacity="1.000000" stroke="none" 
	d="
M166.304596,526.218506 
	C181.928711,524.960266 197.092209,523.496704 212.289368,522.610840 
	C218.358856,522.256958 224.517303,523.013611 230.609177,523.556946 
	C239.641937,524.362732 248.757950,524.864380 257.641327,526.540588 
	C266.719727,528.253540 275.549530,531.267456 284.508484,533.635254 
	C290.497894,535.218140 296.529785,536.639771 302.529755,538.183838 
	C308.018219,539.596191 313.497040,541.047668 318.965515,542.535461 
	C322.876251,543.599609 326.722137,545.521790 330.667480,545.730957 
	C347.045380,546.599182 363.450287,546.954224 379.844421,547.523071 
	C381.487488,547.580139 383.154877,547.660400 384.758759,547.986633 
	C389.767578,549.005371 391.049957,552.613220 387.156616,556.054810 
	C380.922180,561.565857 374.587524,567.140259 367.582977,571.558594 
	C358.821472,577.085144 349.595703,582.053223 340.111481,586.217224 
	C323.512604,593.504761 305.869415,597.675415 287.872406,594.504761 
	C272.813873,591.851746 258.293823,586.276306 243.370209,582.680054 
	C231.853500,579.904663 220.154572,577.254272 208.396606,576.329834 
	C200.342636,575.696533 192.072037,578.413025 183.853653,579.092651 
	C176.959015,579.662781 169.412857,582.608826 163.562958,576.411621 
	C160.790115,573.474182 158.537918,569.873108 156.725479,566.236023 
	C152.607361,557.972229 148.720932,549.579712 145.092560,541.088989 
	C141.788116,533.356323 147.296127,529.767883 153.638245,528.228333 
	C157.636215,527.257812 161.779434,526.885620 166.304596,526.218506 
z"/>
<path fill="#92A4B2" opacity="1.000000" stroke="none" 
	d="
M310.761505,146.973984 
	C330.469696,127.294960 349.907684,107.870865 369.349274,88.450386 
	C374.766693,83.038879 374.940765,82.865486 380.375946,88.021545 
	C393.872589,100.825180 407.211212,113.795616 420.589844,126.723320 
	C427.286133,133.193924 433.724243,139.953354 440.714264,146.086212 
	C443.086090,148.167175 446.771851,149.749802 449.892365,149.812622 
	C467.374146,150.164612 484.866638,149.991821 502.355499,149.976852 
	C508.884583,149.971252 512.917786,146.570786 514.080200,140.231827 
	C514.468689,138.112946 514.661011,135.875641 515.530457,133.958954 
	C516.035461,132.845703 517.619507,131.894653 518.890564,131.589691 
	C519.559509,131.429184 521.224365,132.700516 521.373230,133.519180 
	C522.631165,140.439713 524.649231,147.232285 522.265259,154.473373 
	C519.102722,164.079437 514.651794,165.314255 503.648926,165.662094 
	C487.012787,166.188049 470.344574,165.982346 453.696655,165.697861 
	C448.088135,165.602020 443.955933,167.351990 440.037384,171.314316 
	C419.931946,191.644272 399.540985,211.692230 379.474976,232.060532 
	C376.092743,235.493729 374.247711,235.095673 371.109589,231.939255 
	C353.991974,214.721848 336.703644,197.673447 319.399628,180.642502 
	C315.026123,176.337997 310.538483,172.115005 305.777039,168.257217 
	C304.027222,166.839508 301.344421,165.942139 299.070038,165.906631 
	C285.415405,165.693375 271.752838,165.966934 258.099091,165.726425 
	C251.658707,165.612976 245.224319,164.796249 238.801529,164.154861 
	C233.354218,163.610870 230.484009,160.306030 228.843384,155.184677 
	C226.595886,148.168869 228.923065,141.402710 229.453537,134.558960 
	C229.528931,133.586243 232.058960,132.184326 233.488190,132.140854 
	C234.545914,132.108658 236.217331,133.777039 236.623718,135.013687 
	C237.280106,137.011078 236.750061,139.391678 237.376007,141.407013 
	C239.203888,147.292053 243.279739,149.974091 249.807922,149.978317 
	C267.130219,149.989563 284.454315,150.108749 301.773010,149.858536 
	C304.691589,149.816376 307.586700,148.147507 310.761505,146.973984 
M384.077271,194.583862 
	C396.328735,182.749451 408.580231,170.915054 421.301025,158.627304 
	C406.116302,143.839905 391.175659,129.290222 376.080078,114.589638 
	C372.378082,118.017616 369.080475,121.026443 365.831940,124.087357 
	C354.708282,134.568588 343.616943,145.084122 332.475342,155.546234 
	C330.403198,157.492020 330.643188,159.189163 332.526215,161.050110 
	C344.248352,172.634949 355.722260,184.483490 367.741058,195.751190 
	C375.483673,203.009918 375.837860,202.632126 384.077271,194.583862 
z"/>
<path fill="#2DAECE" opacity="1.000000" stroke="none" 
	d="
M321.159454,419.094788 
	C319.661957,419.540253 318.177521,420.308685 316.664520,420.369812 
	C312.341064,420.544434 307.959320,420.833557 303.686462,420.337463 
	C297.342590,419.600922 293.251343,422.251892 289.305054,426.996002 
	C277.352814,441.364685 264.930298,455.341156 252.780746,469.547211 
	C244.528397,479.196381 236.455811,488.999176 228.225281,498.667236 
	C227.069977,500.024292 225.499359,501.922852 224.072830,501.965668 
	C221.190796,502.052155 217.423691,501.963165 215.571335,500.260529 
	C212.699402,497.620819 213.971481,493.514862 216.251907,490.771393 
	C224.559601,480.776794 233.191391,471.052429 241.625244,461.161591 
	C251.716278,449.327301 261.712006,437.411774 271.784058,425.561218 
	C276.696808,419.781097 281.301025,413.653595 286.809753,408.501007 
	C289.559265,405.929230 293.917816,404.311920 297.745270,403.832153 
	C303.980377,403.050568 310.383423,403.704865 316.700806,403.422394 
	C318.495697,403.342163 320.809296,402.608582 321.913971,401.333374 
	C329.157623,392.971893 336.066589,384.321686 343.225555,375.885132 
	C347.362823,371.009521 351.628174,366.225433 356.091736,361.649719 
	C359.139923,358.524902 364.306122,358.487183 367.013092,361.095428 
	C370.049683,364.021210 369.909271,367.538452 366.457336,371.518127 
	C352.834717,387.223541 339.183044,402.903717 324.907745,418.442566 
	C315.207611,418.291870 306.141846,418.291870 297.076111,418.291870 
	C297.074097,418.559509 297.072052,418.827148 297.070038,419.094788 
	C305.099854,419.094788 313.129639,419.094788 321.159454,419.094788 
z"/>
<path fill="#2EAFCF" opacity="1.000000" stroke="none" 
	d="
M477.237854,444.852051 
	C469.475037,434.496216 461.877686,424.440887 454.595612,414.162170 
	C438.285889,391.140900 422.049713,368.065826 406.062531,344.820831 
	C404.669342,342.795166 405.334595,339.353760 405.043701,336.569946 
	C407.940796,337.155975 411.919464,336.747711 413.538391,338.508759 
	C419.076233,344.532959 423.848724,351.271179 428.797363,357.824493 
	C439.935547,372.574341 451.077515,387.322418 462.081940,402.171967 
	C474.429382,418.833740 486.584534,435.637909 498.904327,452.320282 
	C507.498444,463.957733 516.242554,475.484314 524.884521,487.086578 
	C526.270203,488.946838 527.679626,490.840668 528.707275,492.903656 
	C530.107666,495.714935 530.887634,499.317230 527.549988,500.737610 
	C525.214355,501.731537 520.840698,501.624878 519.288452,500.084259 
	C514.507996,495.339478 510.529602,489.757080 506.449799,484.341766 
	C497.058563,471.876282 487.788605,459.319397 478.484161,446.788727 
	C478.095795,446.265778 477.855621,445.632843 477.237854,444.852051 
z"/>
<path fill="#2EAFCE" opacity="1.000000" stroke="none" 
	d="
M377.051025,401.693542 
	C385.504578,406.365753 385.739014,410.567841 379.536072,417.619324 
	C369.364868,429.181824 359.665680,441.161346 349.839966,453.025116 
	C344.292725,459.722961 338.905945,466.349823 328.616028,464.389435 
	C323.841919,463.479889 320.539307,465.633270 317.341522,469.686646 
	C308.252075,481.207977 298.572388,492.276367 288.808807,503.241425 
	C287.064972,505.199829 283.731049,506.975372 281.264984,506.812469 
	C275.307770,506.418854 273.208984,500.262909 277.198456,494.972260 
	C282.448975,488.009247 288.166443,481.397308 293.711090,474.657410 
	C299.439087,467.694672 305.237366,460.789398 310.930756,453.798584 
	C313.501068,450.642578 316.580170,448.609589 320.752899,449.262878 
	C329.300079,450.600983 335.778625,447.853516 341.172333,440.897461 
	C349.427551,430.251007 358.166199,419.966461 367.002045,409.790863 
	C369.730011,406.649231 373.443085,404.363007 377.051025,401.693542 
z"/>
<path fill="#92A5B2" opacity="1.000000" stroke="none" 
	d="
M234.000015,104.908249 
	C245.560791,105.675781 256.657379,106.124969 267.665375,107.362343 
	C272.291077,107.882309 276.795959,109.891632 281.231628,111.555054 
	C284.707458,112.858543 285.327576,118.049660 282.097809,120.084488 
	C278.952057,122.066383 275.416931,123.747192 271.824066,124.647583 
	C256.147797,128.576141 240.110306,129.797165 224.068466,128.634064 
	C212.736526,127.812431 201.513535,125.471924 190.249435,123.760010 
	C189.286972,123.613739 188.171371,123.324905 187.489273,122.704147 
	C185.592224,120.977623 182.907654,119.249931 182.451904,117.113594 
	C182.152740,115.711197 184.838974,112.797043 186.788544,111.962692 
	C191.603836,109.901894 196.669006,107.858704 201.806717,107.236244 
	C212.310989,105.963615 222.928909,105.629166 234.000015,104.908249 
z"/>
<path fill="#92A5B2" opacity="1.000000" stroke="none" 
	d="
M556.971313,124.919128 
	C540.445740,128.878372 524.020203,129.762787 507.629211,128.530807 
	C495.509155,127.619827 482.995300,127.335709 471.930481,121.125656 
	C470.035461,120.062103 467.785278,117.765724 467.692902,115.938087 
	C467.617096,114.438560 470.241119,111.949181 472.126068,111.358261 
	C478.711639,109.293716 485.429230,106.838303 492.217682,106.398087 
	C507.434174,105.411362 522.761841,104.765587 537.968689,105.514648 
	C547.220032,105.970345 556.395752,109.043488 565.450195,111.510796 
	C567.292542,112.012840 569.130554,114.901329 569.629883,117.007507 
	C569.897766,118.137779 567.580444,120.406898 565.957153,121.340363 
	C563.302979,122.866585 560.262939,123.721718 556.971313,124.919128 
z"/>
<path fill="#2EAFCF" opacity="1.000000" stroke="none" 
	d="
M458.808472,461.066833 
	C466.040710,471.555756 472.977356,481.803192 480.048004,491.957275 
	C483.872986,497.450348 482.744995,502.271393 477.222565,505.085449 
	C472.720062,507.379730 470.234833,504.218872 468.607056,501.627350 
	C461.541748,490.378998 454.916626,478.850800 448.281067,467.338135 
	C446.440674,464.145142 444.774414,460.320404 448.957825,457.761383 
	C452.876587,455.364319 456.193451,457.119415 458.808472,461.066833 
z"/>
<path fill="#33B3D1" opacity="1.000000" stroke="none" 
	d="
M436.412811,501.363556 
	C433.170837,505.002411 429.869598,505.483734 426.115326,502.827087 
	C422.662292,500.383667 421.283325,496.908722 423.232635,493.377441 
	C425.039307,490.104675 428.416382,488.391388 432.565674,489.700714 
	C436.787720,491.032990 438.832245,493.842773 438.334717,498.231598 
	C438.221191,499.232910 437.234680,500.135223 436.412811,501.363556 
z"/>
<path fill="#00A2C7" opacity="1.000000" stroke="none" 
	d="
M321.536713,419.123474 
	C313.129639,419.094788 305.099854,419.094788 297.070038,419.094788 
	C297.072052,418.827148 297.074097,418.559509 297.076111,418.291870 
	C306.141846,418.291870 315.207611,418.291870 324.588745,418.546753 
	C323.907440,418.918488 322.910706,419.035339 321.536713,419.123474 
z"/>
<path fill="#FBFBFC" opacity="1.000000" stroke="none" 
	d="
M383.826233,194.834320 
	C375.837860,202.632126 375.483673,203.009918 367.741058,195.751190 
	C355.722260,184.483490 344.248352,172.634949 332.526215,161.050110 
	C330.643188,159.189163 330.403198,157.492020 332.475342,155.546234 
	C343.616943,145.084122 354.708282,134.568588 365.831940,124.087357 
	C369.080475,121.026443 372.378082,118.017616 376.080078,114.589638 
	C391.175659,129.290222 406.116302,143.839905 421.301025,158.627304 
	C408.580231,170.915054 396.328735,182.749451 383.826233,194.834320 
M377.330353,177.090698 
	C382.891907,171.871582 388.444427,166.642776 394.020203,161.438904 
	C395.800964,159.776932 396.820740,158.155457 394.633850,156.001328 
	C389.301605,150.748779 384.110870,145.348114 378.644836,140.240692 
	C377.831085,139.480331 375.238281,139.322662 374.480957,140.006836 
	C367.757050,146.081268 361.261353,152.408279 354.237213,159.100067 
	C360.633636,165.405182 366.339966,171.191010 372.283875,176.721512 
	C373.212646,177.585709 375.222626,177.287918 377.330353,177.090698 
z"/>
<path fill="#92A5B2" opacity="1.000000" stroke="none" 
	d="
M377.031494,177.309067 
	C375.222626,177.287918 373.212646,177.585709 372.283875,176.721512 
	C366.339966,171.191010 360.633636,165.405182 354.237213,159.100067 
	C361.261353,152.408279 367.757050,146.081268 374.480957,140.006836 
	C375.238281,139.322662 377.831085,139.480331 378.644836,140.240692 
	C384.110870,145.348114 389.301605,150.748779 394.633850,156.001328 
	C396.820740,158.155457 395.800964,159.776932 394.020203,161.438904 
	C388.444427,166.642776 382.891907,171.871582 377.031494,177.309067 
z"/>
</svg>