<svg version="1.1" id="Layer_1" xmlns="http://www.w3.org/2000/svg" xmlns:xlink="http://www.w3.org/1999/xlink" x="0px" y="0px"
	 width="100%" viewBox="0 0 836 1116" enable-background="new 0 0 836 1116" xml:space="preserve">
<path fill="#FDFFFF" opacity="1.000000" stroke="none" 
	d="
M1.000000,328.000000 
	C1.000000,218.680588 1.000000,109.861191 1.000000,1.020891 
	C279.617096,1.020891 558.234192,1.020891 836.925659,1.020891 
	C836.925659,372.902771 836.925659,744.805603 836.925659,1116.854248 
	C558.333374,1116.854248 279.666718,1116.854248 1.000000,1116.854248 
	C1.000000,854.099121 1.000000,591.299561 1.000000,328.000000 
M446.143677,543.343567 
	C455.439819,559.481262 464.345612,575.861511 474.170197,591.670776 
	C480.656830,602.108826 480.151520,611.569397 473.602081,621.389587 
	C458.160583,644.542480 442.617645,667.630005 427.419220,690.941895 
	C417.825958,705.656433 408.534729,720.582825 399.591034,735.699890 
	C395.054016,743.368591 396.702026,746.915710 404.894287,750.308411 
	C406.872650,751.127686 408.984467,752.030151 411.068237,752.119751 
	C420.371338,752.519531 429.697174,753.008667 438.993896,752.740540 
	C446.231720,752.531799 453.890808,752.343384 458.900696,745.634460 
	C463.861786,738.990845 468.813965,732.328796 473.467590,725.469666 
	C490.239532,700.749146 506.869507,675.932251 523.581665,651.171143 
	C533.653137,636.249084 536.035889,620.734497 526.328674,604.829712 
	C513.330444,583.532776 499.896545,562.502136 486.692596,541.330383 
	C467.766357,510.983398 448.851349,480.629333 429.997955,450.237122 
	C426.243011,444.183960 426.576996,440.924103 431.061096,435.843109 
	C437.004425,429.108765 442.925720,422.351440 449.016846,415.752014 
	C459.392334,404.510681 463.687073,404.471405 473.992218,415.766266 
	C493.056915,436.661987 511.969635,457.696289 530.988953,478.633606 
	C569.923828,521.494751 608.853821,564.360535 647.853210,607.163025 
	C667.578247,628.811584 687.437134,650.338379 707.258972,671.898682 
	C727.306824,693.704651 747.318787,715.544128 767.478638,737.246155 
	C775.892029,746.303162 785.947998,752.383850 798.844604,749.807007 
	C803.411804,748.894470 809.194214,746.759094 811.423279,743.267578 
	C814.317017,738.734924 811.701477,733.000488 807.731384,728.811218 
	C806.932190,727.967896 806.246521,727.018127 805.477783,726.144470 
	C790.750366,709.407288 776.094360,692.606628 761.270935,675.954895 
	C734.608582,646.003845 707.792053,616.189880 681.139343,586.230286 
	C655.261780,557.142212 629.574402,527.884766 603.681213,498.810608 
	C581.993347,474.458344 560.138611,450.254608 538.340210,426.000946 
	C516.206177,401.373871 494.000671,376.810883 471.923859,352.132751 
	C459.167694,337.873505 446.822052,323.241760 433.882294,309.153717 
	C424.144165,298.551453 414.043335,298.462646 404.237274,309.057037 
	C390.343567,324.067749 377.058716,339.640686 363.448151,354.914978 
	C336.443878,385.220154 309.376160,415.468719 282.371002,445.773041 
	C264.550842,465.770264 246.804947,485.833649 229.005539,505.849396 
	C214.634094,522.010315 200.284988,538.191589 185.830704,554.278259 
	C167.927460,574.203430 149.876419,593.995850 131.980850,613.927856 
	C114.754791,633.114136 97.703888,652.457703 80.468163,671.635193 
	C64.229118,689.703613 47.696415,707.511292 31.666704,725.761963 
	C28.625259,729.224792 26.745445,734.045959 25.380943,738.558289 
	C23.663767,744.236938 27.093498,749.451721 32.868649,749.689514 
	C40.958431,750.022583 49.295734,750.288635 57.135513,748.677612 
	C62.440247,747.587524 68.060593,744.154114 71.837288,740.159241 
	C91.219543,719.657593 109.923317,698.516907 129.107162,677.824829 
	C150.254791,655.014587 171.672073,632.454468 192.961075,609.775269 
	C217.679810,583.442322 242.442841,557.150574 267.078339,530.739929 
	C282.514862,514.191162 297.568085,497.282227 313.131561,480.855347 
	C327.898560,465.269104 342.981903,449.975983 358.168793,434.796722 
	C366.637024,426.332794 378.581055,427.783661 385.018524,437.823090 
	C389.863037,445.378174 394.444580,453.110077 398.925781,460.888489 
	C414.614929,488.121338 430.209930,515.408386 446.143677,543.343567 
M122.590103,966.904114 
	C128.363586,971.883972 133.935104,977.123779 139.947845,981.795654 
	C159.052185,996.639282 177.871155,1011.910278 197.639313,1025.824341 
	C222.763428,1043.508179 250.988647,1055.411255 279.686127,1065.987915 
	C321.848511,1081.527100 365.273285,1090.330811 410.422150,1090.529663 
	C432.990143,1090.629028 455.200104,1087.856812 477.448425,1084.953491 
	C502.303467,1081.709717 527.056763,1077.929810 550.989624,1070.064697 
	C583.434143,1059.402344 613.111938,1043.179688 641.781921,1024.953979 
	C672.855164,1005.200317 700.665894,981.486023 726.026672,954.860779 
	C731.132080,949.500854 735.920410,943.838806 740.777710,938.402466 
	C735.448181,931.854797 732.733582,929.944336 720.679749,929.159546 
	C707.097534,928.275269 693.427185,928.761597 679.795654,928.611938 
	C658.917664,928.382629 638.129150,929.883850 618.049683,935.628845 
	C584.912109,945.109985 551.982117,955.328186 519.049622,965.510620 
	C493.254639,973.486206 467.881287,982.999817 441.793732,989.812683 
	C405.919708,999.181274 369.785309,995.826538 334.128387,987.205627 
	C302.732056,979.614746 275.053131,963.870117 247.862595,947.047546 
	C232.674973,937.651062 217.439560,928.146423 201.426193,920.328003 
	C188.359100,913.948059 173.912140,910.464294 160.420700,904.867859 
	C136.985336,895.146606 113.642227,894.984436 89.920029,903.464539 
	C76.807274,908.151978 75.659004,911.999329 84.827583,922.755066 
	C97.237679,937.313477 109.671547,951.851562 122.590103,966.904114 
M732.173462,901.387817 
	C739.626343,902.109192 747.098083,902.678650 754.526062,903.600342 
	C760.397644,904.328796 765.062561,902.269775 768.596497,897.875549 
	C771.066833,894.803894 772.674072,891.043701 775.105713,887.934326 
	C792.130432,866.164246 803.549927,841.271729 814.906799,816.379517 
	C819.677856,805.921997 816.507080,797.834839 806.442871,792.596130 
	C804.114990,791.384399 801.528748,790.432190 798.952393,789.975342 
	C787.658630,787.973022 776.365295,785.884949 764.996582,784.406250 
	C744.716736,781.768372 724.433411,778.238586 704.059692,777.447205 
	C669.974670,776.123108 635.967773,777.910461 602.327454,784.880493 
	C578.771545,789.761047 556.044495,796.416504 534.813843,807.997681 
	C515.010620,818.800293 496.892242,831.958496 479.289215,845.932983 
	C447.147766,871.449158 413.286469,894.302429 376.018036,911.751526 
	C353.639343,922.229248 330.449921,929.891357 305.496124,931.346252 
	C297.146210,931.833130 288.850159,933.244385 280.529510,934.233093 
	C280.313599,934.860657 280.097656,935.488281 279.881744,936.115845 
	C282.567413,938.321899 285.004120,940.963806 287.979187,942.663208 
	C307.154633,953.616821 327.933472,960.012085 349.130371,966.129028 
	C377.706360,974.375427 405.710327,973.046997 433.855225,966.589294 
	C444.588501,964.126587 454.671600,958.922363 465.157990,955.275146 
	C506.007660,941.067322 546.926147,927.057068 587.768311,912.827759 
	C617.639404,902.420715 648.589844,898.550720 679.954651,898.354309 
	C697.049561,898.247192 714.157776,900.251648 732.173462,901.387817 
M26.161114,827.238037 
	C28.108107,831.463257 29.812468,835.822021 32.048950,839.888000 
	C38.042118,850.783691 43.902187,861.781555 50.524929,872.291565 
	C54.707554,878.929199 61.734192,881.625122 69.537598,881.041016 
	C77.311653,880.459229 85.190475,879.950073 92.763145,878.250000 
	C116.967796,872.815796 140.970215,873.689026 164.823532,879.760437 
	C191.080521,886.443665 217.314362,893.244690 243.413254,900.515015 
	C272.251007,908.548218 300.917877,910.002563 329.886841,901.205322 
	C354.244812,893.808228 377.093170,883.056824 398.291870,869.282104 
	C412.572754,860.002563 425.566864,848.698303 438.832764,837.925598 
	C443.405853,834.212036 442.410400,829.309143 437.073059,826.942444 
	C434.415100,825.763916 431.351990,825.079834 428.439850,824.960632 
	C406.666046,824.068848 384.878784,823.499084 363.107208,822.561829 
	C353.160645,822.133667 343.000275,822.200806 333.361908,820.096619 
	C317.642365,816.664673 302.394348,811.120361 286.727997,807.388123 
	C251.372589,798.965393 217.031708,785.834229 180.156677,784.334045 
	C166.545059,783.780273 152.914169,781.556763 139.365524,782.062622 
	C114.306206,782.998230 89.279411,785.133362 64.283615,787.286194 
	C53.747791,788.193542 43.209545,789.889221 32.879547,792.166321 
	C19.539579,795.106812 15.946726,802.965454 21.260475,815.546692 
	C22.807716,819.210144 24.418325,822.846863 26.161114,827.238037 
M285.158234,166.126953 
	C289.194122,167.466537 293.947144,167.878098 297.122253,170.331604 
	C304.602356,176.111786 311.566376,182.625290 318.321594,189.266891 
	C349.209320,219.635269 379.952728,250.150391 410.751068,280.609711 
	C411.461029,281.311829 412.128052,282.097198 412.950043,282.639038 
	C416.014435,284.659088 419.111145,285.069946 422.085388,282.438568 
	C423.580139,281.116089 425.069855,279.781525 426.479340,278.370026 
	C460.391296,244.409378 494.308594,210.454086 528.175171,176.448257 
	C532.737122,171.867554 537.751404,168.139938 544.193115,166.879333 
	C547.096558,166.311157 550.102051,166.063858 553.065125,166.032272 
	C584.203003,165.700317 615.341675,165.440125 646.480164,165.163071 
	C663.412415,165.012436 670.240479,154.886002 671.766174,140.517441 
	C672.724182,131.493896 670.823914,122.107620 669.628479,112.959534 
	C669.355591,110.871094 666.701538,109.093811 665.143433,107.173325 
	C663.065430,108.879440 660.378540,110.220192 659.075806,112.391441 
	C657.692688,114.696594 657.439087,117.761551 657.011719,120.543793 
	C655.187439,132.420181 647.977112,138.851364 635.928650,138.854248 
	C606.933960,138.861191 577.939270,138.757538 548.944580,138.700455 
	C541.311707,138.685425 534.480286,136.317429 528.969238,131.043671 
	C509.841003,112.739082 490.859985,94.280762 471.777039,75.928703 
	C456.416992,61.156963 441.046722,46.394936 425.571350,31.744406 
	C416.942261,23.575268 415.977020,23.694155 407.478363,32.190479 
	C375.421783,64.238205 343.279297,96.201019 311.391663,128.416016 
	C304.320923,135.559311 295.969971,138.581406 286.376038,138.651306 
	C259.215515,138.849228 232.053268,138.817474 204.891693,138.874893 
	C203.391876,138.878067 201.890503,138.913086 200.392456,138.859940 
	C186.629410,138.371674 179.705200,131.604141 178.853790,117.892090 
	C178.772644,116.585251 178.819534,114.966080 178.094803,114.064201 
	C176.355804,111.900208 174.269241,108.568703 172.183517,108.463150 
	C168.907639,108.297379 165.556244,110.205597 165.533020,114.888054 
	C165.518387,117.842743 164.555786,120.780922 164.194748,123.747963 
	C163.190475,132.001038 161.943024,140.247482 164.956253,148.415100 
	C167.716736,155.897629 171.978195,161.957611 180.463043,162.878479 
	C192.855270,164.223434 205.296890,165.583527 217.741913,165.868576 
	C239.894424,166.375992 262.065247,166.083069 285.158234,166.126953 
M259.422943,627.910950 
	C263.016907,623.763733 266.697266,619.687683 270.186066,615.453796 
	C276.597961,607.672424 284.609283,604.794067 294.777405,605.003540 
	C306.118713,605.237244 317.498047,603.757996 328.853851,602.928711 
	C329.916168,602.851074 331.234833,602.361633 331.916656,601.599976 
	C339.025757,593.658569 346.068542,585.656616 353.053436,577.605286 
	C369.681641,558.438538 386.312653,539.273804 402.850922,520.029541 
	C409.571442,512.209412 406.769684,502.330322 397.346985,500.207794 
	C391.371918,498.861908 386.450195,501.092346 382.634308,505.519318 
	C365.379730,525.537292 348.086975,545.526123 331.134979,565.798889 
	C325.717834,572.277344 320.198975,577.022766 311.020203,576.187805 
	C304.417938,575.587219 297.709198,575.995544 291.053894,576.174927 
	C279.002380,576.499817 268.300842,579.719177 260.104218,589.487427 
	C243.009674,609.859680 225.616974,629.981812 208.345001,650.205200 
	C195.606750,665.120117 182.852219,680.021179 170.130356,694.950134 
	C160.856995,705.832336 151.548660,716.686340 142.409012,727.680298 
	C138.222336,732.716309 137.868866,738.799500 141.096069,742.257996 
	C145.896988,747.403015 157.525803,747.296936 162.168152,741.853088 
	C173.167786,728.954285 183.961472,715.879761 194.981857,702.998962 
	C216.270493,678.116760 237.658127,653.319214 259.422943,627.910950 
M570.873047,617.649902 
	C579.941711,629.972168 588.980286,642.316650 598.085632,654.611694 
	C613.729431,675.735718 629.301331,696.914551 645.139465,717.892212 
	C651.343567,726.109497 658.027466,733.982849 664.798828,741.745911 
	C668.308960,745.770142 677.233459,746.163269 681.380127,743.069092 
	C684.804810,740.513611 685.079712,736.142761 681.492432,729.945129 
	C678.669250,725.067505 675.392883,720.425293 672.034363,715.888306 
	C630.365662,659.599609 588.749695,603.271423 546.891907,547.123474 
	C527.118896,520.599915 506.755859,494.516754 486.891632,468.060242 
	C482.241699,461.867188 476.195160,461.042938 469.195251,461.095490 
	C468.438049,467.440826 468.750214,473.004669 472.598541,478.360565 
	C483.475128,493.497955 493.891357,508.965027 504.639038,524.196289 
	C526.514832,555.197815 548.489197,586.129822 570.873047,617.649902 
M411.758667,579.204285 
	C408.123718,582.612488 404.108887,585.700378 400.918518,589.483521 
	C385.819031,607.388672 370.995697,625.526245 355.969269,643.493530 
	C348.251404,652.721863 338.072540,656.992920 326.284515,655.392761 
	C316.781982,654.102783 310.425995,657.713135 304.773560,664.708130 
	C292.972198,679.312439 280.804962,693.620667 268.949158,708.181702 
	C261.515472,717.311646 254.265091,726.596924 247.154449,735.980713 
	C244.123734,739.980286 243.367264,745.042786 246.312256,749.025635 
	C248.193924,751.570496 252.433334,754.166870 255.248611,753.813721 
	C259.675751,753.258362 264.982086,751.295410 267.844727,748.082642 
	C283.653229,730.340942 299.047028,712.214844 314.138062,693.854919 
	C321.469177,684.935791 329.135468,678.210022 341.689850,681.737671 
	C342.749207,682.035278 343.997131,681.690369 345.154633,681.605408 
	C356.967651,680.737549 364.049286,672.599731 370.958069,664.464050 
	C383.759888,649.388794 396.377045,634.155762 408.979492,618.912659 
	C416.065277,610.342163 423.252441,601.829834 429.844360,592.886230 
	C433.682495,587.678894 432.452454,582.577271 427.652557,578.253662 
	C421.261505,572.496765 421.079285,572.484436 414.279327,577.266785 
	C413.600983,577.743835 412.904999,578.195862 411.758667,579.204285 
M578.420471,83.850067 
	C584.383545,91.089188 593.007324,93.690659 601.412292,95.839844 
	C626.603577,102.281334 652.492554,102.891029 678.260498,102.619827 
	C692.379333,102.471222 706.531433,100.067146 720.552734,97.922890 
	C730.174683,96.451416 739.760559,93.901787 747.789551,87.965805 
	C754.207336,83.221016 753.012390,74.707550 745.215515,72.704933 
	C729.169128,68.583412 712.957214,63.261002 696.626160,62.511532 
	C669.949951,61.287304 643.079651,62.624043 616.383179,64.324432 
	C605.509155,65.017036 594.764893,69.124298 584.175476,72.374756 
	C578.133606,74.229317 576.336487,78.442665 578.420471,83.850067 
M204.447540,100.985008 
	C209.382004,100.331558 214.372986,99.956856 219.239838,98.969971 
	C231.544586,96.474823 244.418015,95.483795 255.010391,87.816574 
	C257.365265,86.112030 259.272675,82.813347 259.888611,79.928879 
	C260.663147,76.301674 257.903320,73.709999 254.488632,72.532433 
	C247.600174,70.156914 240.770798,67.337585 233.673859,65.912315 
	C225.896927,64.350487 217.859894,63.941349 209.910782,63.410881 
	C196.149841,62.492565 182.373535,61.396706 168.595612,61.272984 
	C158.035797,61.178154 147.437134,62.194401 136.904739,63.219749 
	C127.505119,64.134827 118.002617,65.041367 108.865807,67.266708 
	C101.907043,68.961571 95.045212,72.044945 88.890564,75.755196 
	C83.406860,79.060989 83.814453,82.449211 88.211632,87.119743 
	C92.005753,91.149734 96.384598,93.520882 102.013466,94.168953 
	C109.596550,95.042023 117.109406,96.537971 124.644249,97.814751 
	C150.808228,102.248207 177.082504,103.901459 204.447540,100.985008 
M592.803223,751.600769 
	C602.544128,746.895142 604.364258,738.135437 598.211792,729.301941 
	C585.182922,710.595398 572.471985,691.667419 559.470886,672.941223 
	C555.746948,667.577393 549.743591,666.564026 544.511292,669.811218 
	C539.422424,672.969482 538.272461,677.298828 541.898560,683.576782 
	C554.121094,704.738159 566.513489,725.803650 579.069824,746.768677 
	C582.602234,752.666626 585.918762,753.596313 592.803223,751.600769 
M517.467346,749.219788 
	C520.309143,745.768372 524.713867,742.695129 525.660217,738.784973 
	C527.502747,731.172058 521.726807,725.374084 513.037109,724.267334 
	C507.659515,723.582397 502.722076,726.303101 500.003235,731.449646 
	C497.553986,736.085938 498.186676,741.093323 502.115601,745.113708 
	C506.134369,749.225830 510.819122,751.715698 517.467346,749.219788 
z"/>
<path fill="#8092A2" opacity="1.000000" stroke="none" 
	d="
M445.992188,543.009216 
	C430.209930,515.408386 414.614929,488.121338 398.925781,460.888489 
	C394.444580,453.110077 389.863037,445.378174 385.018524,437.823090 
	C378.581055,427.783661 366.637024,426.332794 358.168793,434.796722 
	C342.981903,449.975983 327.898560,465.269104 313.131561,480.855347 
	C297.568085,497.282227 282.514862,514.191162 267.078339,530.739929 
	C242.442841,557.150574 217.679810,583.442322 192.961075,609.775269 
	C171.672073,632.454468 150.254791,655.014587 129.107162,677.824829 
	C109.923317,698.516907 91.219543,719.657593 71.837288,740.159241 
	C68.060593,744.154114 62.440247,747.587524 57.135513,748.677612 
	C49.295734,750.288635 40.958431,750.022583 32.868649,749.689514 
	C27.093498,749.451721 23.663767,744.236938 25.380943,738.558289 
	C26.745445,734.045959 28.625259,729.224792 31.666704,725.761963 
	C47.696415,707.511292 64.229118,689.703613 80.468163,671.635193 
	C97.703888,652.457703 114.754791,633.114136 131.980850,613.927856 
	C149.876419,593.995850 167.927460,574.203430 185.830704,554.278259 
	C200.284988,538.191589 214.634094,522.010315 229.005539,505.849396 
	C246.804947,485.833649 264.550842,465.770264 282.371002,445.773041 
	C309.376160,415.468719 336.443878,385.220154 363.448151,354.914978 
	C377.058716,339.640686 390.343567,324.067749 404.237274,309.057037 
	C414.043335,298.462646 424.144165,298.551453 433.882294,309.153717 
	C446.822052,323.241760 459.167694,337.873505 471.923859,352.132751 
	C494.000671,376.810883 516.206177,401.373871 538.340210,426.000946 
	C560.138611,450.254608 581.993347,474.458344 603.681213,498.810608 
	C629.574402,527.884766 655.261780,557.142212 681.139343,586.230286 
	C707.792053,616.189880 734.608582,646.003845 761.270935,675.954895 
	C776.094360,692.606628 790.750366,709.407288 805.477783,726.144470 
	C806.246521,727.018127 806.932190,727.967896 807.731384,728.811218 
	C811.701477,733.000488 814.317017,738.734924 811.423279,743.267578 
	C809.194214,746.759094 803.411804,748.894470 798.844604,749.807007 
	C785.947998,752.383850 775.892029,746.303162 767.478638,737.246155 
	C747.318787,715.544128 727.306824,693.704651 707.258972,671.898682 
	C687.437134,650.338379 667.578247,628.811584 647.853210,607.163025 
	C608.853821,564.360535 569.923828,521.494751 530.988953,478.633606 
	C511.969635,457.696289 493.056915,436.661987 473.992218,415.766266 
	C463.687073,404.471405 459.392334,404.510681 449.016846,415.752014 
	C442.925720,422.351440 437.004425,429.108765 431.061096,435.843109 
	C426.576996,440.924103 426.243011,444.183960 429.997955,450.237122 
	C448.851349,480.629333 467.766357,510.983398 486.692596,541.330383 
	C499.896545,562.502136 513.330444,583.532776 526.328674,604.829712 
	C536.035889,620.734497 533.653137,636.249084 523.581665,651.171143 
	C506.869507,675.932251 490.239532,700.749146 473.467590,725.469666 
	C468.813965,732.328796 463.861786,738.990845 458.900696,745.634460 
	C453.890808,752.343384 446.231720,752.531799 438.993896,752.740540 
	C429.697174,753.008667 420.371338,752.519531 411.068237,752.119751 
	C408.984467,752.030151 406.872650,751.127686 404.894287,750.308411 
	C396.702026,746.915710 395.054016,743.368591 399.591034,735.699890 
	C408.534729,720.582825 417.825958,705.656433 427.419220,690.941895 
	C442.617645,667.630005 458.160583,644.542480 473.602081,621.389587 
	C480.151520,611.569397 480.656830,602.108826 474.170197,591.670776 
	C464.345612,575.861511 455.439819,559.481262 445.992188,543.009216 
z"/>
<path fill="#2D9CC2" opacity="1.000000" stroke="none" 
	d="
M122.342651,966.651245 
	C109.671547,951.851562 97.237679,937.313477 84.827583,922.755066 
	C75.659004,911.999329 76.807274,908.151978 89.920029,903.464539 
	C113.642227,894.984436 136.985336,895.146606 160.420700,904.867859 
	C173.912140,910.464294 188.359100,913.948059 201.426193,920.328003 
	C217.439560,928.146423 232.674973,937.651062 247.862595,947.047546 
	C275.053131,963.870117 302.732056,979.614746 334.128387,987.205627 
	C369.785309,995.826538 405.919708,999.181274 441.793732,989.812683 
	C467.881287,982.999817 493.254639,973.486206 519.049622,965.510620 
	C551.982117,955.328186 584.912109,945.109985 618.049683,935.628845 
	C638.129150,929.883850 658.917664,928.382629 679.795654,928.611938 
	C693.427185,928.761597 707.097534,928.275269 720.679749,929.159546 
	C732.733582,929.944336 735.448181,931.854797 740.777710,938.402466 
	C735.920410,943.838806 731.132080,949.500854 726.026672,954.860779 
	C700.665894,981.486023 672.855164,1005.200317 641.781921,1024.953979 
	C613.111938,1043.179688 583.434143,1059.402344 550.989624,1070.064697 
	C527.056763,1077.929810 502.303467,1081.709717 477.448425,1084.953491 
	C455.200104,1087.856812 432.990143,1090.629028 410.422150,1090.529663 
	C365.273285,1090.330811 321.848511,1081.527100 279.686127,1065.987915 
	C250.988647,1055.411255 222.763428,1043.508179 197.639313,1025.824341 
	C177.871155,1011.910278 159.052185,996.639282 139.947845,981.795654 
	C133.935104,977.123779 128.363586,971.883972 122.342651,966.651245 
z"/>
<path fill="#2C9BC2" opacity="1.000000" stroke="none" 
	d="
M731.716675,901.345825 
	C714.157776,900.251648 697.049561,898.247192 679.954651,898.354309 
	C648.589844,898.550720 617.639404,902.420715 587.768311,912.827759 
	C546.926147,927.057068 506.007660,941.067322 465.157990,955.275146 
	C454.671600,958.922363 444.588501,964.126587 433.855225,966.589294 
	C405.710327,973.046997 377.706360,974.375427 349.130371,966.129028 
	C327.933472,960.012085 307.154633,953.616821 287.979187,942.663208 
	C285.004120,940.963806 282.567413,938.321899 279.881744,936.115845 
	C280.097656,935.488281 280.313599,934.860657 280.529510,934.233093 
	C288.850159,933.244385 297.146210,931.833130 305.496124,931.346252 
	C330.449921,929.891357 353.639343,922.229248 376.018036,911.751526 
	C413.286469,894.302429 447.147766,871.449158 479.289215,845.932983 
	C496.892242,831.958496 515.010620,818.800293 534.813843,807.997681 
	C556.044495,796.416504 578.771545,789.761047 602.327454,784.880493 
	C635.967773,777.910461 669.974670,776.123108 704.059692,777.447205 
	C724.433411,778.238586 744.716736,781.768372 764.996582,784.406250 
	C776.365295,785.884949 787.658630,787.973022 798.952393,789.975342 
	C801.528748,790.432190 804.114990,791.384399 806.442871,792.596130 
	C816.507080,797.834839 819.677856,805.921997 814.906799,816.379517 
	C803.549927,841.271729 792.130432,866.164246 775.105713,887.934326 
	C772.674072,891.043701 771.066833,894.803894 768.596497,897.875549 
	C765.062561,902.269775 760.397644,904.328796 754.526062,903.600342 
	C747.098083,902.678650 739.626343,902.109192 731.716675,901.345825 
z"/>
<path fill="#2D9CC2" opacity="1.000000" stroke="none" 
	d="
M26.080503,826.866943 
	C24.418325,822.846863 22.807716,819.210144 21.260475,815.546692 
	C15.946726,802.965454 19.539579,795.106812 32.879547,792.166321 
	C43.209545,789.889221 53.747791,788.193542 64.283615,787.286194 
	C89.279411,785.133362 114.306206,782.998230 139.365524,782.062622 
	C152.914169,781.556763 166.545059,783.780273 180.156677,784.334045 
	C217.031708,785.834229 251.372589,798.965393 286.727997,807.388123 
	C302.394348,811.120361 317.642365,816.664673 333.361908,820.096619 
	C343.000275,822.200806 353.160645,822.133667 363.107208,822.561829 
	C384.878784,823.499084 406.666046,824.068848 428.439850,824.960632 
	C431.351990,825.079834 434.415100,825.763916 437.073059,826.942444 
	C442.410400,829.309143 443.405853,834.212036 438.832764,837.925598 
	C425.566864,848.698303 412.572754,860.002563 398.291870,869.282104 
	C377.093170,883.056824 354.244812,893.808228 329.886841,901.205322 
	C300.917877,910.002563 272.251007,908.548218 243.413254,900.515015 
	C217.314362,893.244690 191.080521,886.443665 164.823532,879.760437 
	C140.970215,873.689026 116.967796,872.815796 92.763145,878.250000 
	C85.190475,879.950073 77.311653,880.459229 69.537598,881.041016 
	C61.734192,881.625122 54.707554,878.929199 50.524929,872.291565 
	C43.902187,861.781555 38.042118,850.783691 32.048950,839.888000 
	C29.812468,835.822021 28.108107,831.463257 26.080503,826.866943 
z"/>
<path fill="#8193A3" opacity="1.000000" stroke="none" 
	d="
M284.693298,166.125916 
	C262.065247,166.083069 239.894424,166.375992 217.741913,165.868576 
	C205.296890,165.583527 192.855270,164.223434 180.463043,162.878479 
	C171.978195,161.957611 167.716736,155.897629 164.956253,148.415100 
	C161.943024,140.247482 163.190475,132.001038 164.194748,123.747963 
	C164.555786,120.780922 165.518387,117.842743 165.533020,114.888054 
	C165.556244,110.205597 168.907639,108.297379 172.183517,108.463150 
	C174.269241,108.568703 176.355804,111.900208 178.094803,114.064201 
	C178.819534,114.966080 178.772644,116.585251 178.853790,117.892090 
	C179.705200,131.604141 186.629410,138.371674 200.392456,138.859940 
	C201.890503,138.913086 203.391876,138.878067 204.891693,138.874893 
	C232.053268,138.817474 259.215515,138.849228 286.376038,138.651306 
	C295.969971,138.581406 304.320923,135.559311 311.391663,128.416016 
	C343.279297,96.201019 375.421783,64.238205 407.478363,32.190479 
	C415.977020,23.694155 416.942261,23.575268 425.571350,31.744406 
	C441.046722,46.394936 456.416992,61.156963 471.777039,75.928703 
	C490.859985,94.280762 509.841003,112.739082 528.969238,131.043671 
	C534.480286,136.317429 541.311707,138.685425 548.944580,138.700455 
	C577.939270,138.757538 606.933960,138.861191 635.928650,138.854248 
	C647.977112,138.851364 655.187439,132.420181 657.011719,120.543793 
	C657.439087,117.761551 657.692688,114.696594 659.075806,112.391441 
	C660.378540,110.220192 663.065430,108.879440 665.143433,107.173325 
	C666.701538,109.093811 669.355591,110.871094 669.628479,112.959534 
	C670.823914,122.107620 672.724182,131.493896 671.766174,140.517441 
	C670.240479,154.886002 663.412415,165.012436 646.480164,165.163071 
	C615.341675,165.440125 584.203003,165.700317 553.065125,166.032272 
	C550.102051,166.063858 547.096558,166.311157 544.193115,166.879333 
	C537.751404,168.139938 532.737122,171.867554 528.175171,176.448257 
	C494.308594,210.454086 460.391296,244.409378 426.479340,278.370026 
	C425.069855,279.781525 423.580139,281.116089 422.085388,282.438568 
	C419.111145,285.069946 416.014435,284.659088 412.950043,282.639038 
	C412.128052,282.097198 411.461029,281.311829 410.751068,280.609711 
	C379.952728,250.150391 349.209320,219.635269 318.321594,189.266891 
	C311.566376,182.625290 304.602356,176.111786 297.122253,170.331604 
	C293.947144,167.878098 289.194122,167.466537 284.693298,166.125916 
M406.429932,88.939011 
	C385.845276,108.347145 365.232086,127.725182 344.696228,147.184830 
	C339.637115,151.978806 339.677002,154.073380 344.776672,159.095474 
	C365.780884,179.780090 386.806610,200.443176 407.904968,221.031693 
	C415.753082,228.690201 419.291046,228.570740 427.206268,220.949265 
	C428.046326,220.140396 428.845947,219.289551 429.684906,218.479492 
	C443.938477,204.717072 458.306091,191.070267 472.408081,177.154327 
	C480.316254,169.350464 487.785889,161.102249 495.779449,152.711639 
	C470.475189,128.092026 444.642914,102.958717 418.593262,77.613876 
	C414.496246,81.458344 410.741760,84.981377 406.429932,88.939011 
z"/>
<path fill="#329FC4" opacity="1.000000" stroke="none" 
	d="
M259.213837,628.198730 
	C237.658127,653.319214 216.270493,678.116760 194.981857,702.998962 
	C183.961472,715.879761 173.167786,728.954285 162.168152,741.853088 
	C157.525803,747.296936 145.896988,747.403015 141.096069,742.257996 
	C137.868866,738.799500 138.222336,732.716309 142.409012,727.680298 
	C151.548660,716.686340 160.856995,705.832336 170.130356,694.950134 
	C182.852219,680.021179 195.606750,665.120117 208.345001,650.205200 
	C225.616974,629.981812 243.009674,609.859680 260.104218,589.487427 
	C268.300842,579.719177 279.002380,576.499817 291.053894,576.174927 
	C297.709198,575.995544 304.417938,575.587219 311.020203,576.187805 
	C320.198975,577.022766 325.717834,572.277344 331.134979,565.798889 
	C348.086975,545.526123 365.379730,525.537292 382.634308,505.519318 
	C386.450195,501.092346 391.371918,498.861908 397.346985,500.207794 
	C406.769684,502.330322 409.571442,512.209412 402.850922,520.029541 
	C386.312653,539.273804 369.681641,558.438538 353.053436,577.605286 
	C346.068542,585.656616 339.025757,593.658569 331.916656,601.599976 
	C331.234833,602.361633 329.916168,602.851074 328.853851,602.928711 
	C317.498047,603.757996 306.118713,605.237244 294.777405,605.003540 
	C284.609283,604.794067 276.597961,607.672424 270.186066,615.453796 
	C266.697266,619.687683 263.016907,623.763733 259.213837,628.198730 
z"/>
<path fill="#32A2C5" opacity="1.000000" stroke="none" 
	d="
M570.648010,617.370178 
	C548.489197,586.129822 526.514832,555.197815 504.639038,524.196289 
	C493.891357,508.965027 483.475128,493.497955 472.598541,478.360565 
	C468.750214,473.004669 468.438049,467.440826 469.195251,461.095490 
	C476.195160,461.042938 482.241699,461.867188 486.891632,468.060242 
	C506.755859,494.516754 527.118896,520.599915 546.891907,547.123474 
	C588.749695,603.271423 630.365662,659.599609 672.034363,715.888306 
	C675.392883,720.425293 678.669250,725.067505 681.492432,729.945129 
	C685.079712,736.142761 684.804810,740.513611 681.380127,743.069092 
	C677.233459,746.163269 668.308960,745.770142 664.798828,741.745911 
	C658.027466,733.982849 651.343567,726.109497 645.139465,717.892212 
	C629.301331,696.914551 613.729431,675.735718 598.085632,654.611694 
	C588.980286,642.316650 579.941711,629.972168 570.648010,617.370178 
z"/>
<path fill="#32A1C4" opacity="1.000000" stroke="none" 
	d="
M411.987946,578.931885 
	C412.904999,578.195862 413.600983,577.743835 414.279327,577.266785 
	C421.079285,572.484436 421.261505,572.496765 427.652557,578.253662 
	C432.452454,582.577271 433.682495,587.678894 429.844360,592.886230 
	C423.252441,601.829834 416.065277,610.342163 408.979492,618.912659 
	C396.377045,634.155762 383.759888,649.388794 370.958069,664.464050 
	C364.049286,672.599731 356.967651,680.737549 345.154633,681.605408 
	C343.997131,681.690369 342.749207,682.035278 341.689850,681.737671 
	C329.135468,678.210022 321.469177,684.935791 314.138062,693.854919 
	C299.047028,712.214844 283.653229,730.340942 267.844727,748.082642 
	C264.982086,751.295410 259.675751,753.258362 255.248611,753.813721 
	C252.433334,754.166870 248.193924,751.570496 246.312256,749.025635 
	C243.367264,745.042786 244.123734,739.980286 247.154449,735.980713 
	C254.265091,726.596924 261.515472,717.311646 268.949158,708.181702 
	C280.804962,693.620667 292.972198,679.312439 304.773560,664.708130 
	C310.425995,657.713135 316.781982,654.102783 326.284515,655.392761 
	C338.072540,656.992920 348.251404,652.721863 355.969269,643.493530 
	C370.995697,625.526245 385.819031,607.388672 400.918518,589.483521 
	C404.108887,585.700378 408.123718,582.612488 411.987946,578.931885 
z"/>
<path fill="#8294A3" opacity="1.000000" stroke="none" 
	d="
M578.228577,83.524666 
	C576.336487,78.442665 578.133606,74.229317 584.175476,72.374756 
	C594.764893,69.124298 605.509155,65.017036 616.383179,64.324432 
	C643.079651,62.624043 669.949951,61.287304 696.626160,62.511532 
	C712.957214,63.261002 729.169128,68.583412 745.215515,72.704933 
	C753.012390,74.707550 754.207336,83.221016 747.789551,87.965805 
	C739.760559,93.901787 730.174683,96.451416 720.552734,97.922890 
	C706.531433,100.067146 692.379333,102.471222 678.260498,102.619827 
	C652.492554,102.891029 626.603577,102.281334 601.412292,95.839844 
	C593.007324,93.690659 584.383545,91.089188 578.228577,83.524666 
z"/>
<path fill="#8194A3" opacity="1.000000" stroke="none" 
	d="
M203.994904,101.000671 
	C177.082504,103.901459 150.808228,102.248207 124.644249,97.814751 
	C117.109406,96.537971 109.596550,95.042023 102.013466,94.168953 
	C96.384598,93.520882 92.005753,91.149734 88.211632,87.119743 
	C83.814453,82.449211 83.406860,79.060989 88.890564,75.755196 
	C95.045212,72.044945 101.907043,68.961571 108.865807,67.266708 
	C118.002617,65.041367 127.505119,64.134827 136.904739,63.219749 
	C147.437134,62.194401 158.035797,61.178154 168.595612,61.272984 
	C182.373535,61.396706 196.149841,62.492565 209.910782,63.410881 
	C217.859894,63.941349 225.896927,64.350487 233.673859,65.912315 
	C240.770798,67.337585 247.600174,70.156914 254.488632,72.532433 
	C257.903320,73.709999 260.663147,76.301674 259.888611,79.928879 
	C259.272675,82.813347 257.365265,86.112030 255.010391,87.816574 
	C244.418015,95.483795 231.544586,96.474823 219.239838,98.969971 
	C214.372986,99.956856 209.382004,100.331558 203.994904,101.000671 
z"/>
<path fill="#32A2C5" opacity="1.000000" stroke="none" 
	d="
M592.446167,751.739380 
	C585.918762,753.596313 582.602234,752.666626 579.069824,746.768677 
	C566.513489,725.803650 554.121094,704.738159 541.898560,683.576782 
	C538.272461,677.298828 539.422424,672.969482 544.511292,669.811218 
	C549.743591,666.564026 555.746948,667.577393 559.470886,672.941223 
	C572.471985,691.667419 585.182922,710.595398 598.211792,729.301941 
	C604.364258,738.135437 602.544128,746.895142 592.446167,751.739380 
z"/>
<path fill="#36A6C8" opacity="1.000000" stroke="none" 
	d="
M517.143433,749.407837 
	C510.819122,751.715698 506.134369,749.225830 502.115601,745.113708 
	C498.186676,741.093323 497.553986,736.085938 500.003235,731.449646 
	C502.722076,726.303101 507.659515,723.582397 513.037109,724.267334 
	C521.726807,725.374084 527.502747,731.172058 525.660217,738.784973 
	C524.713867,742.695129 520.309143,745.768372 517.143433,749.407837 
z"/>
<path fill="#F8F9FA" opacity="1.000000" stroke="none" 
	d="
M406.708618,88.721710 
	C410.741760,84.981377 414.496246,81.458344 418.593262,77.613876 
	C444.642914,102.958717 470.475189,128.092026 495.779449,152.711639 
	C487.785889,161.102249 480.316254,169.350464 472.408081,177.154327 
	C458.306091,191.070267 443.938477,204.717072 429.684906,218.479492 
	C428.845947,219.289551 428.046326,220.140396 427.206268,220.949265 
	C419.291046,228.570740 415.753082,228.690201 407.904968,221.031693 
	C386.806610,200.443176 365.780884,179.780090 344.776672,159.095474 
	C339.677002,154.073380 339.637115,151.978806 344.696228,147.184830 
	C365.232086,127.725182 385.845276,108.347145 406.708618,88.721710 
M448.594116,146.941650 
	C440.470520,139.088654 432.358704,131.223434 424.217957,123.388290 
	C420.617065,119.922615 417.631805,119.971268 413.889954,123.456711 
	C411.095642,126.059540 408.280426,128.640396 405.511810,131.270309 
	C397.466766,138.912460 389.440460,146.574341 381.974365,153.687698 
	C391.985535,164.070007 401.531067,174.221970 411.392578,184.057068 
	C414.758789,187.414261 419.974243,186.728256 423.878265,183.019455 
	C432.282654,175.035370 440.628815,166.988892 448.922516,158.889816 
	C454.072296,153.860901 454.018677,153.140244 448.594116,146.941650 
z"/>
<path fill="#8295A4" opacity="1.000000" stroke="none" 
	d="
M448.844757,147.194733 
	C454.018677,153.140244 454.072296,153.860901 448.922516,158.889816 
	C440.628815,166.988892 432.282654,175.035370 423.878265,183.019455 
	C419.974243,186.728256 414.758789,187.414261 411.392578,184.057068 
	C401.531067,174.221970 391.985535,164.070007 381.974365,153.687698 
	C389.440460,146.574341 397.466766,138.912460 405.511810,131.270309 
	C408.280426,128.640396 411.095642,126.059540 413.889954,123.456711 
	C417.631805,119.971268 420.617065,119.922615 424.217957,123.388290 
	C432.358704,131.223434 440.470520,139.088654 448.844757,147.194733 
z"/>
</svg>